<svg width="190" height="43" viewBox="0 0 190 43" fill="none" xmlns="http://www.w3.org/2000/svg">
<path d="M11.0469 11.25V34H8.07812V11.25H11.0469ZM18.3594 11.25V13.7188H0.78125V11.25H18.3594ZM28.9062 13.2656L21.375 34H18.2969L26.9688 11.25H28.9531L28.9062 13.2656ZM35.2188 34L27.6719 13.2656L27.625 11.25H29.6094L38.3125 34H35.2188ZM34.8281 25.5781V28.0469H22.0469V25.5781H34.8281ZM49.4688 23.3594H43.7031L43.6719 20.9375H48.9062C49.7708 20.9375 50.526 20.7917 51.1719 20.5C51.8177 20.2083 52.3177 19.7917 52.6719 19.25C53.0365 18.6979 53.2188 18.0417 53.2188 17.2812C53.2188 16.4479 53.0573 15.7708 52.7344 15.25C52.4219 14.7188 51.9375 14.3333 51.2812 14.0938C50.6354 13.8438 49.8125 13.7188 48.8125 13.7188H44.375V34H41.3594V11.25H48.8125C49.9792 11.25 51.0208 11.3698 51.9375 11.6094C52.8542 11.8385 53.6302 12.2031 54.2656 12.7031C54.9115 13.1927 55.401 13.8177 55.7344 14.5781C56.0677 15.3385 56.2344 16.25 56.2344 17.3125C56.2344 18.25 55.9948 19.099 55.5156 19.8594C55.0365 20.6094 54.3698 21.224 53.5156 21.7031C52.6719 22.1823 51.6823 22.4896 50.5469 22.625L49.4688 23.3594ZM49.3281 34H42.5156L44.2188 31.5469H49.3281C50.2865 31.5469 51.099 31.3802 51.7656 31.0469C52.4427 30.7135 52.9583 30.2448 53.3125 29.6406C53.6667 29.026 53.8438 28.3021 53.8438 27.4688C53.8438 26.625 53.6927 25.8958 53.3906 25.2812C53.0885 24.6667 52.6146 24.1927 51.9688 23.8594C51.3229 23.526 50.4896 23.3594 49.4688 23.3594H45.1719L45.2031 20.9375H51.0781L51.7188 21.8125C52.8125 21.9062 53.7396 22.2188 54.5 22.75C55.2604 23.2708 55.8385 23.9375 56.2344 24.75C56.6406 25.5625 56.8438 26.4583 56.8438 27.4375C56.8438 28.8542 56.5312 30.0521 55.9062 31.0312C55.2917 32 54.4219 32.7396 53.2969 33.25C52.1719 33.75 50.849 34 49.3281 34ZM75.0938 31.5469V34H63.7188V31.5469H75.0938ZM64.3125 11.25V34H61.2969V11.25H64.3125ZM93 31.5469V34H80.9531V31.5469H93ZM81.5625 11.25V34H78.5469V11.25H81.5625ZM91.4062 21.0312V23.4844H80.9531V21.0312H91.4062ZM92.8438 11.25V13.7188H80.9531V11.25H92.8438Z" fill="#E2E8EE"/>
<path d="M112.136 23.704C113.309 23.7467 114.227 23.8 114.888 23.864C115.549 23.9067 116.072 23.9493 116.456 23.992C116.861 24.0347 117.245 24.088 117.608 24.152C118.248 24.28 118.803 24.44 119.272 24.632C119.741 24.8027 120.115 25.048 120.392 25.368C120.691 25.688 120.904 26.0933 121.032 26.584C121.16 27.0533 121.192 27.6507 121.128 28.376L120.872 31.64C120.829 32.28 120.861 32.888 120.968 33.464C121.096 34.0187 121.405 34.2853 121.896 34.264C122.28 34.2427 122.611 34.008 122.888 33.56C123.187 33.0907 123.485 32.4293 123.784 31.576L123.944 31.128H124.68L124.552 31.544C124.189 32.8453 123.709 33.8267 123.112 34.488C122.536 35.128 121.747 35.448 120.744 35.448C119.699 35.448 118.941 35.1387 118.472 34.52C118.003 33.88 117.8 33.1653 117.864 32.376L118.12 28.792C118.205 27.6613 118.12 26.7653 117.864 26.104C117.629 25.4427 117.064 24.9733 116.168 24.696C115.293 24.3973 113.928 24.248 112.072 24.248L112.136 23.704ZM111.816 24.248L111.976 23.608H113.416C114.952 23.608 116.243 23.4373 117.288 23.096C118.333 22.7333 119.165 22.232 119.784 21.592C120.424 20.952 120.883 20.216 121.16 19.384C121.459 18.552 121.608 17.656 121.608 16.696C121.608 15.4373 121.288 14.5093 120.648 13.912C120.029 13.2933 118.995 12.984 117.544 12.984C116.605 12.984 115.944 13.176 115.56 13.56C115.176 13.9227 114.835 14.648 114.536 15.736L110.312 31.608C110.141 32.2693 110.045 32.8027 110.024 33.208C110.003 33.592 110.152 33.88 110.472 34.072C110.813 34.2427 111.389 34.3387 112.2 34.36L112.072 35C111.581 34.9573 110.984 34.936 110.28 34.936C109.576 34.9147 108.851 34.904 108.104 34.904C107.272 34.904 106.483 34.9147 105.736 34.936C104.989 34.936 104.392 34.9573 103.944 35L104.072 34.36C104.797 34.3173 105.363 34.232 105.768 34.104C106.173 33.976 106.493 33.72 106.728 33.336C106.963 32.952 107.176 32.376 107.368 31.608L111.592 15.736C111.784 15.0533 111.869 14.52 111.848 14.136C111.848 13.7307 111.688 13.4427 111.368 13.272C111.048 13.08 110.493 12.984 109.704 12.984L109.864 12.344C110.163 12.3653 110.525 12.3867 110.952 12.408C111.379 12.408 111.837 12.4187 112.328 12.44C112.84 12.44 113.331 12.44 113.8 12.44C114.568 12.44 115.336 12.4293 116.104 12.408C116.893 12.3867 117.683 12.376 118.472 12.376C120.627 12.376 122.227 12.792 123.272 13.624C124.317 14.4347 124.84 15.5227 124.84 16.888C124.84 18.3173 124.339 19.5867 123.336 20.696C122.355 21.784 120.979 22.648 119.208 23.288C117.459 23.928 115.421 24.248 113.096 24.248H111.816ZM128.938 27.736C130.133 27.3307 131.21 26.936 132.17 26.552C133.151 26.1467 133.93 25.72 134.506 25.272C135.274 24.6533 135.882 23.9067 136.33 23.032C136.778 22.1573 137.002 21.1973 137.002 20.152C137.002 19.5333 136.959 19.1387 136.874 18.968C136.789 18.7973 136.661 18.712 136.49 18.712C135.957 18.712 135.381 18.9467 134.762 19.416C134.143 19.8853 133.535 20.536 132.938 21.368C132.341 22.1787 131.786 23.1067 131.274 24.152C130.783 25.1973 130.389 26.3173 130.09 27.512C129.791 28.6853 129.642 29.8587 129.642 31.032C129.642 32.12 129.845 32.9093 130.25 33.4C130.655 33.8693 131.189 34.104 131.85 34.104C132.618 34.104 133.429 33.8693 134.282 33.4C135.135 32.9307 135.967 32.0987 136.778 30.904L137.29 31.16C136.885 31.864 136.351 32.5467 135.69 33.208C135.029 33.8693 134.282 34.4133 133.45 34.84C132.639 35.2453 131.775 35.448 130.858 35.448C130.005 35.448 129.258 35.2773 128.618 34.936C127.978 34.5947 127.487 34.0933 127.146 33.432C126.805 32.7493 126.634 31.9173 126.634 30.936C126.634 30.0187 126.805 28.9947 127.146 27.864C127.487 26.712 127.967 25.5707 128.586 24.44C129.226 23.288 129.983 22.232 130.858 21.272C131.733 20.312 132.703 19.544 133.77 18.968C134.837 18.392 135.978 18.104 137.194 18.104C137.855 18.104 138.41 18.2853 138.858 18.648C139.327 18.9893 139.562 19.512 139.562 20.216C139.562 21.0693 139.306 21.8693 138.794 22.616C138.303 23.3413 137.642 24.0133 136.81 24.632C135.999 25.2293 135.114 25.7627 134.154 26.232C133.194 26.7013 132.255 27.1067 131.338 27.448C130.421 27.7893 129.61 28.0667 128.906 28.28L128.938 27.736ZM144.193 34.424C144.705 34.424 145.291 34.104 145.953 33.464C146.614 32.8027 147.286 31.9173 147.969 30.808C148.651 29.6987 149.281 28.44 149.857 27.032C150.433 25.624 150.891 24.1627 151.233 22.648L150.689 26.104C149.878 28.3653 149.067 30.1893 148.257 31.576C147.446 32.9413 146.625 33.9333 145.793 34.552C144.961 35.1493 144.118 35.448 143.265 35.448C142.262 35.448 141.505 35.0853 140.993 34.36C140.502 33.6347 140.257 32.7067 140.257 31.576C140.257 30.552 140.427 29.4427 140.769 28.248C141.11 27.032 141.579 25.8267 142.177 24.632C142.795 23.4373 143.499 22.3493 144.289 21.368C145.078 20.3867 145.931 19.5973 146.849 19C147.787 18.4027 148.737 18.104 149.697 18.104C150.443 18.104 151.009 18.4773 151.393 19.224C151.798 19.9493 151.883 20.9733 151.649 22.296L151.297 22.488C151.446 21.3573 151.371 20.4507 151.073 19.768C150.774 19.064 150.283 18.712 149.601 18.712C149.046 18.712 148.459 18.9893 147.841 19.544C147.243 20.0773 146.657 20.8133 146.081 21.752C145.526 22.6693 145.014 23.704 144.545 24.856C144.097 26.008 143.734 27.2027 143.457 28.44C143.201 29.656 143.073 30.8293 143.073 31.96C143.073 32.8773 143.169 33.5173 143.361 33.88C143.574 34.2427 143.851 34.424 144.193 34.424ZM152.257 18.552C152.769 18.5307 153.281 18.488 153.793 18.424C154.305 18.36 154.774 18.2533 155.201 18.104L151.201 32.248C151.158 32.44 151.094 32.696 151.009 33.016C150.945 33.3147 150.945 33.592 151.009 33.848C151.094 34.104 151.318 34.232 151.681 34.232C152.107 34.232 152.523 33.9973 152.929 33.528C153.334 33.0587 153.739 32.2053 154.145 30.968L154.529 29.784H155.137L154.337 32.12C154.038 32.9733 153.675 33.6453 153.249 34.136C152.843 34.6053 152.417 34.936 151.969 35.128C151.521 35.3413 151.083 35.448 150.657 35.448C149.825 35.448 149.238 35.1707 148.897 34.616C148.619 34.1253 148.545 33.56 148.673 32.92C148.801 32.2587 148.95 31.5973 149.121 30.936L152.257 18.552ZM168.527 32.28C168.377 32.7707 168.313 33.2293 168.335 33.656C168.377 34.0613 168.633 34.264 169.103 34.264C169.529 34.264 169.924 34.0293 170.287 33.56C170.649 33.0693 171.033 32.216 171.439 31L171.823 29.816H172.431L171.695 32.152C171.439 33.0053 171.097 33.6773 170.671 34.168C170.244 34.6373 169.796 34.968 169.327 35.16C168.857 35.352 168.409 35.448 167.983 35.448C166.703 35.448 166.031 34.84 165.967 33.624C165.945 33.2827 165.967 32.888 166.031 32.44C166.116 31.992 166.233 31.5013 166.383 30.968L170.991 13.656C171.183 12.9307 171.151 12.3973 170.895 12.056C170.639 11.7147 169.988 11.544 168.943 11.544L169.135 10.872C170.308 10.8507 171.343 10.7333 172.239 10.52C173.135 10.2853 173.988 9.96533 174.799 9.56L168.527 32.28ZM161.359 34.424C161.892 34.424 162.489 34.1147 163.151 33.496C163.833 32.856 164.516 32.0027 165.199 30.936C165.903 29.848 166.543 28.6213 167.119 27.256C167.716 25.8693 168.185 24.44 168.527 22.968L168.047 26.424C167.215 28.6213 166.383 30.3813 165.551 31.704C164.74 33.0267 163.908 33.9867 163.055 34.584C162.223 35.16 161.348 35.448 160.431 35.448C159.769 35.448 159.183 35.2987 158.671 35C158.18 34.68 157.796 34.2107 157.519 33.592C157.241 32.9733 157.103 32.184 157.103 31.224C157.103 30.2 157.263 29.1013 157.583 27.928C157.924 26.7333 158.404 25.56 159.023 24.408C159.641 23.256 160.377 22.2107 161.231 21.272C162.105 20.312 163.065 19.544 164.111 18.968C165.156 18.392 166.265 18.104 167.439 18.104C167.929 18.104 168.388 18.296 168.815 18.68C169.241 19.0427 169.476 19.5973 169.519 20.344L169.263 20.984C169.177 20.216 168.964 19.672 168.623 19.352C168.281 19.0107 167.897 18.84 167.471 18.84C166.66 18.84 165.871 19.1173 165.103 19.672C164.356 20.2267 163.673 20.9627 163.055 21.88C162.436 22.7973 161.892 23.8213 161.423 24.952C160.953 26.0613 160.591 27.2027 160.335 28.376C160.079 29.528 159.951 30.616 159.951 31.64C159.951 32.5787 160.068 33.2827 160.303 33.752C160.537 34.2 160.889 34.424 161.359 34.424ZM183.119 33.72L180.975 36.056L178.543 21.336C178.436 20.6747 178.308 20.216 178.159 19.96C178.009 19.704 177.796 19.576 177.519 19.576C177.284 19.576 177.017 19.768 176.719 20.152C176.42 20.5147 176.057 21.304 175.631 22.52L175.215 23.704H174.607L175.407 21.368C175.855 20.0667 176.409 19.2027 177.071 18.776C177.732 18.328 178.404 18.104 179.087 18.104C179.748 18.104 180.26 18.3173 180.623 18.744C180.985 19.1493 181.241 19.9173 181.391 21.048L183.119 33.72ZM176.111 39.512C177.028 39.0213 177.999 38.3493 179.023 37.496C180.068 36.664 181.145 35.5333 182.255 34.104C183.513 32.504 184.655 30.712 185.679 28.728C186.724 26.7227 187.449 24.7067 187.855 22.68C187.513 22.488 187.14 22.2533 186.735 21.976C186.351 21.6773 186.031 21.336 185.775 20.952C185.519 20.5467 185.401 20.0987 185.423 19.608C185.465 19.1173 185.636 18.744 185.935 18.488C186.233 18.232 186.607 18.104 187.055 18.104C187.631 18.104 188.047 18.328 188.303 18.776C188.58 19.2027 188.719 19.8427 188.719 20.696C188.719 21.784 188.537 22.9573 188.175 24.216C187.812 25.4533 187.321 26.712 186.703 27.992C186.105 29.272 185.433 30.5093 184.687 31.704C183.94 32.8773 183.183 33.944 182.415 34.904C182.073 35.3307 181.604 35.864 181.007 36.504C180.409 37.144 179.695 37.7947 178.863 38.456C178.052 39.1387 177.135 39.7253 176.111 40.216C175.471 40.5147 174.916 40.7173 174.447 40.824C173.998 40.952 173.625 41.016 173.326 41.016C172.9 41.016 172.526 40.8987 172.206 40.664C171.886 40.4507 171.726 40.1307 171.726 39.704C171.726 39.2347 171.908 38.872 172.27 38.616C172.612 38.3813 173.006 38.264 173.454 38.264C173.945 38.264 174.404 38.392 174.831 38.648C175.279 38.904 175.705 39.192 176.111 39.512Z" fill="#BF9341"/>
</svg>
